
<svg version="1.1" width="256px" height="45px" id="Layer_1" focusable="false" xmlns="http://www.w3.org/2000/svg" xmlns:xlink="http://www.w3.org/1999/xlink"
	 x="0px" y="0px" viewBox="0 0 256 45" style="enable-background:new 0 0 256 45;" xml:space="preserve">
<title  id="logo-horizontal">Ville de Paris</title>
<path d="M71.2,18c0-2-1.4-3.5-3.3-3.5h-4.1v7h4.1C69.8,21.5,71.2,20,71.2,18L71.2,18z M77.4,18c0,5.2-4.2,9.3-9.5,9.3h-4.1v8.5h-6.2
	V8.7h10.3C73.3,8.7,77.4,12.9,77.4,18L77.4,18z M134.3,35.9V8.7h6.2v27.2H134.3z M113.8,21.9h4.7c1.7,0,3.1-1.6,3.1-3.7
	s-1.4-3.7-3.1-3.7h-4.7V21.9z M113.8,27.3v8.5h-6.2V8.7h10.9c5.1,0,9.3,4.1,9.3,9.3l0,0c0,3.3-1.9,6.6-4.9,8l5.7,9.8h-6.7l-4.9-8.5
	H113.8z M87.3,25.9c1,0.3,2.1,0.4,3.2,0.4s2.2-0.1,3.2-0.4l-3.2-10.1L87.3,25.9L87.3,25.9z M85.6,31.1l-1.5,4.8h-6.8l9.2-27.2h7.9
	l9.2,27.2h-6.8l-1.5-4.8c-1.6,0.4-3.2,0.6-4.9,0.6C88.8,31.7,87.2,31.5,85.6,31.1z M156.3,14.2c-1.7,0-2.9,0.8-2.9,2.1
	c0,1.7,1.7,2.4,5.9,3.7c5.4,1.6,7.7,3.9,7.7,8.1c0,5.3-4.3,8.3-10.1,8.3c-7.4,0-10.5-5.6-10.9-6.7l5.3-2.8c1.2,2.1,3.1,3.4,5.6,3.4
	c2.2,0,3.9-0.6,3.9-2.2c0-2.3-3.7-2.8-5.6-3.5c-1.9-0.7-8-1.9-8-8.3c0-5.3,4.5-8.3,9.1-8.3c6.5,0,9.1,4.4,9.9,6.1l-5.2,2.7
	C160.1,15.7,159,14.2,156.3,14.2L156.3,14.2z M47.9,26.3c0.2,0,0.3,0.7-0.5,2.8C44,38,36.3,44.3,24.8,44.3
	C11,44.3,1.5,34.5,0.1,22.6c0-0.2,0.1-0.4,0.3-0.4h0.1l15.6,3.4c0,0.1,2.6,7.6,9.9,7.6c7.4,0,12.2-7.5,12.2-15.8S33,5.6,31.5,4.4
	c-4.4,2.2-8.8,4.4-13.1,6.6c7.1,4.3,8.4,12.1,6.6,17.4c-0.5,1.5-1,1.6-0.9,0.8c0.6-5.3-1.6-14.7-14.7-17.8c-0.1,0-0.2-0.2-0.2-0.3
	s0.1-0.1,0.1-0.2L32.9,0c5.3,3.9,8.9,8.8,8.9,17.4c0,9.6-6.5,18.8-15.7,18.8c-8.8,0-12.1-7.6-12.1-7.7l-8.7-1.6
	c0.1,0.4,4.1,14.4,21.1,14.2c8.5-0.1,16.6-4.7,21-14.2C47.5,26.4,47.7,26.3,47.9,26.3L47.9,26.3z"/>
<rect x="187.1" y="3.3" width="1.5" height="38.5"/>
<g class="st0">
	<path d="M217.7,22.5h2.8v5.3c-1.4,1.1-3.4,1.7-5.3,1.7c-4.1,0-7.2-2.8-7.2-6.8s3-6.8,7.2-6.8c2.3,0,4.2,0.8,5.5,2.3l-2,1.8
		c-1-1-2.1-1.5-3.4-1.5c-2.6,0-4.3,1.7-4.3,4.2c0,2.5,1.7,4.2,4.3,4.2c0.8,0,1.6-0.2,2.4-0.6V22.5z"/>
	<path d="M231.7,29.3l-2.5-3.7H229h-2.7v3.7h-3V16.1h5.7c3.5,0,5.7,1.8,5.7,4.8c0,2-1,3.4-2.7,4.2l3,4.2H231.7z M228.8,18.6h-2.5
		v4.6h2.5c1.9,0,2.8-0.9,2.8-2.3C231.6,19.5,230.7,18.6,228.8,18.6z"/>
	<path d="M237,23.5v-7.4h3v7.3c0,2.5,1.1,3.5,2.9,3.5c1.9,0,2.9-1,2.9-3.5v-7.3h3v7.4c0,3.9-2.2,6-6,6C239.2,29.5,237,27.4,237,23.5
		z"/>
</g>
</svg>
